# MagicaVoxel @ Ephtracy

# group
o 

# material
mtllib oven-0.mtl
usemtl palette

# normals
vn -1 0 0
vn 1 0 0
vn 0 0 1
vn 0 0 -1
vn 0 -1 0
vn 0 1 0

# texcoords
vt 0.970703 0.5
vt 0.974609 0.5
vt 0.978516 0.5
vt 0.982422 0.5

# verts
v -3.5 0 2.1
v -3.5 0 2
v -3.5 2 2.1
v -3.5 2 2
v -2.3 1.8 2.3
v -2.3 1.8 2.2
v -2.3 1.9 2.3
v -2.3 1.9 2.2
v -2.1 1.8 2.2
v -2.1 1.8 2.1
v -2.1 1.9 2.2
v -2.1 1.9 2.1
v 1.9 1.8 2.2
v 1.9 1.8 2.1
v 1.9 1.9 2.2
v 1.9 1.9 2.1
v -1.9 1.8 2.2
v -1.9 1.8 2.1
v -1.9 1.9 2.2
v -1.9 1.9 2.1
v 2.1 1.8 2.2
v 2.1 1.8 2.1
v 2.1 1.9 2.2
v 2.1 1.9 2.1
v 2.3 1.8 2.3
v 2.3 1.8 2.2
v 2.3 1.9 2.3
v 2.3 1.9 2.2
v 3.5 0 2.1
v 3.5 0 2
v 3.5 2 2.1
v 3.5 2 2
v -2.3 1.8 2.3
v -2.3 1.9 2.3
v 2.3 1.8 2.3
v 2.3 1.9 2.3
v -3.5 0 2.1
v -3.5 2 2.1
v -3.4 1.6 2.1
v -3.4 1.7 2.1
v -3.3 1.6 2.1
v -3.3 1.7 2.1
v -3.2 0 2.1
v -3.2 2 2.1
v -3.1 0 2.1
v -3.1 0.1 2.1
v -3.1 1.7 2.1
v -3.1 2 2.1
v -2.1 1.8 2.1
v -2.1 1.9 2.1
v -1.9 1.8 2.1
v -1.9 1.9 2.1
v 1.9 1.8 2.1
v 1.9 1.9 2.1
v 2.1 1.8 2.1
v 2.1 1.9 2.1
v 3.4 0.1 2.1
v 3.4 1.7 2.1
v 3.5 0 2.1
v 3.5 2 2.1
v -2.3 1.8 2.2
v -2.3 1.9 2.2
v -2.1 1.8 2.2
v -2.1 1.9 2.2
v -1.9 1.8 2.2
v -1.9 1.9 2.2
v 1.9 1.8 2.2
v 1.9 1.9 2.2
v 2.1 1.8 2.2
v 2.1 1.9 2.2
v 2.3 1.8 2.2
v 2.3 1.9 2.2
v -3.5 0 2
v -3.5 2 2
v -3.4 1.6 2
v -3.4 1.7 2
v -3.3 1.6 2
v -3.3 1.7 2
v -3.2 0 2
v -3.2 2 2
v -3.1 0 2
v -3.1 0.1 2
v -3.1 1.7 2
v -3.1 2 2
v 3.4 0.1 2
v 3.4 1.7 2
v 3.5 0 2
v 3.5 2 2
v -3.5 0 2.1
v -3.2 0 2.1
v -3.1 0 2.1
v 3.5 0 2.1
v -3.5 0 2
v -3.2 0 2
v -3.1 0 2
v 3.5 0 2
v -2.3 1.8 2.3
v 2.3 1.8 2.3
v -2.3 1.8 2.2
v -2.1 1.8 2.2
v -1.9 1.8 2.2
v 1.9 1.8 2.2
v 2.1 1.8 2.2
v 2.3 1.8 2.2
v -2.1 1.8 2.1
v -1.9 1.8 2.1
v 1.9 1.8 2.1
v 2.1 1.8 2.1
v -2.3 1.9 2.3
v 2.3 1.9 2.3
v -2.3 1.9 2.2
v -2.1 1.9 2.2
v -1.9 1.9 2.2
v 1.9 1.9 2.2
v 2.1 1.9 2.2
v 2.3 1.9 2.2
v -2.1 1.9 2.1
v -1.9 1.9 2.1
v 1.9 1.9 2.1
v 2.1 1.9 2.1
v -3.5 2 2.1
v -3.2 2 2.1
v -3.1 2 2.1
v 3.5 2 2.1
v -3.5 2 2
v -3.2 2 2
v -3.1 2 2
v 3.5 2 2

# faces
f 3/2/1 2/2/1 1/2/1
f 4/2/1 2/2/1 3/2/1
f 7/1/1 6/1/1 5/1/1
f 8/1/1 6/1/1 7/1/1
f 11/2/1 10/2/1 9/2/1
f 12/2/1 10/2/1 11/2/1
f 15/2/1 14/2/1 13/2/1
f 16/2/1 14/2/1 15/2/1
f 17/2/2 18/2/2 19/2/2
f 19/2/2 18/2/2 20/2/2
f 21/2/2 22/2/2 23/2/2
f 23/2/2 22/2/2 24/2/2
f 25/1/2 26/1/2 27/1/2
f 27/1/2 26/1/2 28/1/2
f 29/2/2 30/2/2 31/2/2
f 31/2/2 30/2/2 32/2/2
f 35/1/3 34/1/3 33/1/3
f 36/1/3 34/1/3 35/1/3
f 39/2/3 38/2/3 37/2/3
f 40/2/3 38/2/3 39/2/3
f 41/2/3 39/2/3 37/2/3
f 41/4/3 40/4/3 39/4/3
f 42/2/3 38/2/3 40/2/3
f 42/4/3 40/4/3 41/4/3
f 43/2/3 41/2/3 37/2/3
f 43/2/3 42/2/3 41/2/3
f 44/2/3 38/2/3 42/2/3
f 44/2/3 42/2/3 43/2/3
f 45/4/3 44/4/3 43/4/3
f 46/4/3 44/4/3 45/4/3
f 47/4/3 44/4/3 46/4/3
f 48/4/3 44/4/3 47/4/3
f 49/2/3 48/2/3 47/2/3
f 50/2/3 48/2/3 49/2/3
f 51/2/3 49/2/3 47/2/3
f 52/2/3 48/2/3 50/2/3
f 53/2/3 51/2/3 47/2/3
f 53/2/3 52/2/3 51/2/3
f 54/2/3 48/2/3 52/2/3
f 54/2/3 52/2/3 53/2/3
f 55/2/3 53/2/3 47/2/3
f 56/2/3 48/2/3 54/2/3
f 57/2/3 46/2/3 45/2/3
f 57/3/3 47/3/3 46/3/3
f 58/2/3 56/2/3 55/2/3
f 58/3/3 47/3/3 57/3/3
f 58/2/3 55/2/3 47/2/3
f 59/2/3 57/2/3 45/2/3
f 59/2/3 58/2/3 57/2/3
f 60/2/3 56/2/3 58/2/3
f 60/2/3 58/2/3 59/2/3
f 60/2/3 48/2/3 56/2/3
f 61/1/4 62/1/4 63/1/4
f 63/1/4 62/1/4 64/1/4
f 65/1/4 66/1/4 67/1/4
f 67/1/4 66/1/4 68/1/4
f 69/1/4 70/1/4 71/1/4
f 71/1/4 70/1/4 72/1/4
f 73/2/4 74/2/4 75/2/4
f 75/2/4 74/2/4 76/2/4
f 73/2/4 75/2/4 77/2/4
f 75/4/4 76/4/4 77/4/4
f 76/2/4 74/2/4 78/2/4
f 77/4/4 76/4/4 78/4/4
f 73/2/4 77/2/4 79/2/4
f 77/2/4 78/2/4 79/2/4
f 78/2/4 74/2/4 80/2/4
f 79/2/4 78/2/4 80/2/4
f 79/4/4 80/4/4 81/4/4
f 81/4/4 80/4/4 82/4/4
f 82/4/4 80/4/4 83/4/4
f 83/4/4 80/4/4 84/4/4
f 81/2/4 82/2/4 85/2/4
f 82/3/4 83/3/4 85/3/4
f 83/2/4 84/2/4 86/2/4
f 85/3/4 83/3/4 86/3/4
f 81/2/4 85/2/4 87/2/4
f 85/2/4 86/2/4 87/2/4
f 86/2/4 84/2/4 88/2/4
f 87/2/4 86/2/4 88/2/4
f 93/2/5 90/2/5 89/2/5
f 94/4/5 91/4/5 90/4/5
f 94/2/5 90/2/5 93/2/5
f 95/2/5 92/2/5 91/2/5
f 95/4/5 91/4/5 94/4/5
f 96/2/5 92/2/5 95/2/5
f 99/1/5 98/1/5 97/1/5
f 100/1/5 98/1/5 99/1/5
f 101/1/5 98/1/5 100/1/5
f 102/1/5 98/1/5 101/1/5
f 103/1/5 98/1/5 102/1/5
f 104/1/5 98/1/5 103/1/5
f 105/2/5 101/2/5 100/2/5
f 106/2/5 101/2/5 105/2/5
f 107/2/5 103/2/5 102/2/5
f 108/2/5 103/2/5 107/2/5
f 109/1/6 110/1/6 111/1/6
f 111/1/6 110/1/6 112/1/6
f 112/1/6 110/1/6 113/1/6
f 113/1/6 110/1/6 114/1/6
f 114/1/6 110/1/6 115/1/6
f 115/1/6 110/1/6 116/1/6
f 112/2/6 113/2/6 117/2/6
f 117/2/6 113/2/6 118/2/6
f 114/2/6 115/2/6 119/2/6
f 119/2/6 115/2/6 120/2/6
f 121/2/6 122/2/6 125/2/6
f 122/4/6 123/4/6 126/4/6
f 125/2/6 122/2/6 126/2/6
f 123/2/6 124/2/6 127/2/6
f 126/4/6 123/4/6 127/4/6
f 127/2/6 124/2/6 128/2/6
