# MagicaVoxel @ Ephtracy

# group
o 

# material
mtllib oven_new-1.mtl
usemtl palette

# normals
vn -1 0 0
vn 1 0 0
vn 0 0 1
vn 0 0 -1
vn 0 -1 0
vn 0 1 0

# texcoords
vt 0.970703 0.5
vt 0.974609 0.5
vt 0.982422 0.5

# verts
v -3.5 0 2.1
v -3.5 0 2
v -3.5 2 2.1
v -3.5 2 2
v -2.3 1.8 2.3
v -2.3 1.8 2.2
v -2.3 1.9 2.3
v -2.3 1.9 2.2
v -2.1 1.8 2.2
v -2.1 1.8 2.1
v -2.1 1.9 2.2
v -2.1 1.9 2.1
v 1.9 1.8 2.2
v 1.9 1.8 2.1
v 1.9 1.9 2.2
v 1.9 1.9 2.1
v 3.4 0.1 2.1
v 3.4 0.1 2
v 3.4 1.7 2.1
v 3.4 1.7 2
v -3.1 0.1 2.1
v -3.1 0.1 2
v -3.1 1.7 2.1
v -3.1 1.7 2
v -1.9 1.8 2.2
v -1.9 1.8 2.1
v -1.9 1.9 2.2
v -1.9 1.9 2.1
v 2.1 1.8 2.2
v 2.1 1.8 2.1
v 2.1 1.9 2.2
v 2.1 1.9 2.1
v 2.3 1.8 2.3
v 2.3 1.8 2.2
v 2.3 1.9 2.3
v 2.3 1.9 2.2
v 3.5 0 2.1
v 3.5 0 2
v 3.5 2 2.1
v 3.5 2 2
v -2.3 1.8 2.3
v -2.3 1.9 2.3
v 2.3 1.8 2.3
v 2.3 1.9 2.3
v -3.5 0 2.1
v -3.5 2 2.1
v -3.4 1.6 2.1
v -3.4 1.7 2.1
v -3.3 1.6 2.1
v -3.3 1.7 2.1
v -3.2 0 2.1
v -3.2 2 2.1
v -3.1 0 2.1
v -3.1 0.1 2.1
v -3.1 1.7 2.1
v -3.1 2 2.1
v -2.1 1.8 2.1
v -2.1 1.9 2.1
v -1.9 1.8 2.1
v -1.9 1.9 2.1
v 1.9 1.8 2.1
v 1.9 1.9 2.1
v 2.1 1.8 2.1
v 2.1 1.9 2.1
v 3.4 0.1 2.1
v 3.4 1.7 2.1
v 3.5 0 2.1
v 3.5 2 2.1
v -2.3 1.8 2.2
v -2.3 1.9 2.2
v -2.1 1.8 2.2
v -2.1 1.9 2.2
v -1.9 1.8 2.2
v -1.9 1.9 2.2
v 1.9 1.8 2.2
v 1.9 1.9 2.2
v 2.1 1.8 2.2
v 2.1 1.9 2.2
v 2.3 1.8 2.2
v 2.3 1.9 2.2
v -3.5 0 2
v -3.5 2 2
v -3.4 1.6 2
v -3.4 1.7 2
v -3.3 1.6 2
v -3.3 1.7 2
v -3.2 0 2
v -3.2 2 2
v -3.1 0 2
v -3.1 0.1 2
v -3.1 1.7 2
v -3.1 2 2
v 3.4 0.1 2
v 3.4 1.7 2
v 3.5 0 2
v 3.5 2 2
v -3.5 0 2.1
v -3.2 0 2.1
v -3.1 0 2.1
v 3.5 0 2.1
v -3.5 0 2
v -3.2 0 2
v -3.1 0 2
v 3.5 0 2
v -3.1 1.7 2.1
v 3.4 1.7 2.1
v -3.1 1.7 2
v 3.4 1.7 2
v -2.3 1.8 2.3
v 2.3 1.8 2.3
v -2.3 1.8 2.2
v -2.1 1.8 2.2
v -1.9 1.8 2.2
v 1.9 1.8 2.2
v 2.1 1.8 2.2
v 2.3 1.8 2.2
v -2.1 1.8 2.1
v -1.9 1.8 2.1
v 1.9 1.8 2.1
v 2.1 1.8 2.1
v -3.1 0.1 2.1
v 3.4 0.1 2.1
v -3.1 0.1 2
v 3.4 0.1 2
v -2.3 1.9 2.3
v 2.3 1.9 2.3
v -2.3 1.9 2.2
v -2.1 1.9 2.2
v -1.9 1.9 2.2
v 1.9 1.9 2.2
v 2.1 1.9 2.2
v 2.3 1.9 2.2
v -2.1 1.9 2.1
v -1.9 1.9 2.1
v 1.9 1.9 2.1
v 2.1 1.9 2.1
v -3.5 2 2.1
v -3.2 2 2.1
v -3.1 2 2.1
v 3.5 2 2.1
v -3.5 2 2
v -3.2 2 2
v -3.1 2 2
v 3.5 2 2

# faces
f 3/2/1 2/2/1 1/2/1
f 4/2/1 2/2/1 3/2/1
f 7/1/1 6/1/1 5/1/1
f 8/1/1 6/1/1 7/1/1
f 11/2/1 10/2/1 9/2/1
f 12/2/1 10/2/1 11/2/1
f 15/2/1 14/2/1 13/2/1
f 16/2/1 14/2/1 15/2/1
f 19/2/1 18/2/1 17/2/1
f 20/2/1 18/2/1 19/2/1
f 21/3/2 22/3/2 23/3/2
f 23/3/2 22/3/2 24/3/2
f 25/2/2 26/2/2 27/2/2
f 27/2/2 26/2/2 28/2/2
f 29/2/2 30/2/2 31/2/2
f 31/2/2 30/2/2 32/2/2
f 33/1/2 34/1/2 35/1/2
f 35/1/2 34/1/2 36/1/2
f 37/2/2 38/2/2 39/2/2
f 39/2/2 38/2/2 40/2/2
f 43/1/3 42/1/3 41/1/3
f 44/1/3 42/1/3 43/1/3
f 47/2/3 46/2/3 45/2/3
f 48/2/3 46/2/3 47/2/3
f 49/2/3 47/2/3 45/2/3
f 49/3/3 48/3/3 47/3/3
f 50/2/3 46/2/3 48/2/3
f 50/3/3 48/3/3 49/3/3
f 51/2/3 49/2/3 45/2/3
f 51/2/3 50/2/3 49/2/3
f 52/2/3 46/2/3 50/2/3
f 52/2/3 50/2/3 51/2/3
f 53/3/3 52/3/3 51/3/3
f 54/3/3 52/3/3 53/3/3
f 55/3/3 52/3/3 54/3/3
f 56/3/3 52/3/3 55/3/3
f 57/2/3 56/2/3 55/2/3
f 58/2/3 56/2/3 57/2/3
f 59/2/3 57/2/3 55/2/3
f 60/2/3 56/2/3 58/2/3
f 61/2/3 59/2/3 55/2/3
f 61/2/3 60/2/3 59/2/3
f 62/2/3 56/2/3 60/2/3
f 62/2/3 60/2/3 61/2/3
f 63/2/3 61/2/3 55/2/3
f 64/2/3 56/2/3 62/2/3
f 65/2/3 54/2/3 53/2/3
f 66/2/3 64/2/3 63/2/3
f 66/2/3 63/2/3 55/2/3
f 67/2/3 65/2/3 53/2/3
f 67/2/3 66/2/3 65/2/3
f 68/2/3 64/2/3 66/2/3
f 68/2/3 66/2/3 67/2/3
f 68/2/3 56/2/3 64/2/3
f 69/1/4 70/1/4 71/1/4
f 71/1/4 70/1/4 72/1/4
f 73/1/4 74/1/4 75/1/4
f 75/1/4 74/1/4 76/1/4
f 77/1/4 78/1/4 79/1/4
f 79/1/4 78/1/4 80/1/4
f 81/2/4 82/2/4 83/2/4
f 83/2/4 82/2/4 84/2/4
f 81/2/4 83/2/4 85/2/4
f 83/3/4 84/3/4 85/3/4
f 84/2/4 82/2/4 86/2/4
f 85/3/4 84/3/4 86/3/4
f 81/2/4 85/2/4 87/2/4
f 85/2/4 86/2/4 87/2/4
f 86/2/4 82/2/4 88/2/4
f 87/2/4 86/2/4 88/2/4
f 87/3/4 88/3/4 89/3/4
f 89/3/4 88/3/4 90/3/4
f 90/3/4 88/3/4 91/3/4
f 91/3/4 88/3/4 92/3/4
f 89/2/4 90/2/4 93/2/4
f 91/2/4 92/2/4 94/2/4
f 89/2/4 93/2/4 95/2/4
f 93/2/4 94/2/4 95/2/4
f 94/2/4 92/2/4 96/2/4
f 95/2/4 94/2/4 96/2/4
f 101/2/5 98/2/5 97/2/5
f 102/3/5 99/3/5 98/3/5
f 102/2/5 98/2/5 101/2/5
f 103/2/5 100/2/5 99/2/5
f 103/3/5 99/3/5 102/3/5
f 104/2/5 100/2/5 103/2/5
f 107/2/5 106/2/5 105/2/5
f 108/2/5 106/2/5 107/2/5
f 111/1/5 110/1/5 109/1/5
f 112/1/5 110/1/5 111/1/5
f 113/1/5 110/1/5 112/1/5
f 114/1/5 110/1/5 113/1/5
f 115/1/5 110/1/5 114/1/5
f 116/1/5 110/1/5 115/1/5
f 117/2/5 113/2/5 112/2/5
f 118/2/5 113/2/5 117/2/5
f 119/2/5 115/2/5 114/2/5
f 120/2/5 115/2/5 119/2/5
f 121/2/6 122/2/6 123/2/6
f 123/2/6 122/2/6 124/2/6
f 125/1/6 126/1/6 127/1/6
f 127/1/6 126/1/6 128/1/6
f 128/1/6 126/1/6 129/1/6
f 129/1/6 126/1/6 130/1/6
f 130/1/6 126/1/6 131/1/6
f 131/1/6 126/1/6 132/1/6
f 128/2/6 129/2/6 133/2/6
f 133/2/6 129/2/6 134/2/6
f 130/2/6 131/2/6 135/2/6
f 135/2/6 131/2/6 136/2/6
f 137/2/6 138/2/6 141/2/6
f 138/3/6 139/3/6 142/3/6
f 141/2/6 138/2/6 142/2/6
f 139/2/6 140/2/6 143/2/6
f 142/3/6 139/3/6 143/3/6
f 143/2/6 140/2/6 144/2/6
