# MagicaVoxel @ Ephtracy

# group
o 

# material
mtllib beam.mtl
usemtl palette

# normals
vn -1 0 0
vn 1 0 0
vn 0 0 1
vn 0 0 -1
vn 0 -1 0
vn 0 1 0

# texcoords
vt 0.197266 0.5
vt 0.298828 0.5
vt 0.908203 0.5

# verts
v -2 0 0.2
v -2 0 0.1
v -2 0 0
v -2 0 -0.1
v -2 0 -0.2
v -2 0.1 0.3
v -2 0.1 0.2
v -2 0.1 0.1
v -2 0.1 0
v -2 0.1 -0.1
v -2 0.1 -0.2
v -2 0.1 -0.3
v -2 0.2 0.3
v -2 0.2 0.2
v -2 0.2 0.1
v -2 0.2 0
v -2 0.2 -0.2
v -2 0.2 -0.3
v -2 0.3 0.3
v -2 0.3 0.2
v -2 0.3 0.1
v -2 0.3 0
v -2 0.3 -0.1
v -2 0.3 -0.2
v -2 0.3 -0.3
v -2 0.4 0.3
v -2 0.4 0.2
v -2 0.4 0.1
v -2 0.4 -0.1
v -2 0.5 0.3
v -2 0.5 0.2
v -2 0.5 0.1
v -2 0.5 -0.1
v -2 0.5 -0.2
v -2 0.5 -0.3
v -2 0.6 0.2
v -2 0.6 0.1
v -2 0.6 -0.1
v -2 0.6 -0.2
v 2 0 0.2
v 2 0 -0.1
v 2 0 -0.2
v 2 0.1 0.3
v 2 0.1 0.2
v 2 0.1 0
v 2 0.1 -0.1
v 2 0.1 -0.2
v 2 0.1 -0.3
v 2 0.2 0.3
v 2 0.2 0.2
v 2 0.2 0.1
v 2 0.2 0
v 2 0.2 -0.1
v 2 0.2 -0.2
v 2 0.2 -0.3
v 2 0.3 0.3
v 2 0.3 0.2
v 2 0.3 0.1
v 2 0.3 0
v 2 0.3 -0.1
v 2 0.3 -0.2
v 2 0.4 0.3
v 2 0.4 0.2
v 2 0.4 0.1
v 2 0.4 0
v 2 0.4 -0.1
v 2 0.4 -0.2
v 2 0.4 -0.3
v 2 0.5 0.3
v 2 0.5 0.2
v 2 0.5 0.1
v 2 0.5 0
v 2 0.5 -0.1
v 2 0.5 -0.2
v 2 0.5 -0.3
v 2 0.6 0.2
v 2 0.6 0.1
v 2 0.6 0
v 2 0.6 -0.1
v 2 0.6 -0.2
v -2 0.1 0.3
v -2 0.2 0.3
v -2 0.3 0.3
v -2 0.4 0.3
v -2 0.5 0.3
v -1.9 0.1 0.3
v -1.9 0.2 0.3
v -1.9 0.3 0.3
v -1.9 0.4 0.3
v -1.8 0.3 0.3
v -1.8 0.4 0.3
v -1.6 0.2 0.3
v -1.6 0.3 0.3
v -1.5 0.1 0.3
v -1.5 0.2 0.3
v -1.5 0.4 0.3
v -1.4 0.1 0.3
v -1.4 0.2 0.3
v -1.1 0.4 0.3
v -1.1 0.5 0.3
v -0.9 0.1 0.3
v -0.9 0.2 0.3
v -0.9 0.4 0.3
v -0.9 0.5 0.3
v -0.7 0.4 0.3
v -0.7 0.5 0.3
v -0.3 0.3 0.3
v -0.3 0.4 0.3
v -0.0999999 0.1 0.3
v -0.0999999 0.2 0.3
v -0.0999999 0.3 0.3
v 2.38419e-07 0.3 0.3
v 2.38419e-07 0.4 0.3
v 0.6 0.2 0.3
v 0.6 0.3 0.3
v 0.8 0.4 0.3
v 0.8 0.5 0.3
v 1.1 0.2 0.3
v 1.1 0.3 0.3
v 1.3 0.2 0.3
v 1.3 0.3 0.3
v 1.4 0.3 0.3
v 1.4 0.4 0.3
v 1.5 0.3 0.3
v 1.5 0.4 0.3
v 1.5 0.5 0.3
v 1.6 0.1 0.3
v 1.6 0.2 0.3
v 1.6 0.4 0.3
v 1.6 0.5 0.3
v 1.9 0.1 0.3
v 1.9 0.2 0.3
v 1.9 0.3 0.3
v 1.9 0.4 0.3
v 1.9 0.5 0.3
v 2 0.1 0.3
v 2 0.2 0.3
v 2 0.3 0.3
v 2 0.4 0.3
v 2 0.5 0.3
v -2 0 0.2
v -2 0.1 0.2
v -2 0.5 0.2
v -2 0.6 0.2
v -1.9 0.1 0.2
v -1.6 0 0.2
v -1.6 0.1 0.2
v -1.5 0.1 0.2
v -1.4 0.1 0.2
v -1.3 0 0.2
v -1.3 0.1 0.2
v -1.3 0.5 0.2
v -1.3 0.6 0.2
v -1.1 0.5 0.2
v -1 0 0.2
v -1 0.1 0.2
v -0.9 0.1 0.2
v -0.9 0.5 0.2
v -0.7 0.5 0.2
v -0.6 0 0.2
v -0.6 0.1 0.2
v -0.4 0.5 0.2
v -0.4 0.6 0.2
v -0.3 0.5 0.2
v -0.3 0.6 0.2
v -0.0999999 0.1 0.2
v 0.4 0 0.2
v 0.4 0.1 0.2
v 0.5 0.5 0.2
v 0.5 0.6 0.2
v 0.6 0 0.2
v 0.6 0.1 0.2
v 0.7 0.5 0.2
v 0.7 0.6 0.2
v 0.8 0.5 0.2
v 1.5 0.5 0.2
v 1.6 0.1 0.2
v 1.6 0.5 0.2
v 1.9 0.1 0.2
v 1.9 0.5 0.2
v 2 0 0.2
v 2 0.1 0.2
v 2 0.5 0.2
v 2 0.6 0.2
v -2 0 -0.2
v -2 0.1 -0.2
v -2 0.5 -0.2
v -2 0.6 -0.2
v -1.9 0 -0.2
v -1.9 0.1 -0.2
v -1.9 0.5 -0.2
v -1.9 0.6 -0.2
v 0.4 0 -0.2
v 0.4 0.1 -0.2
v 0.7 0.5 -0.2
v 1 0 -0.2
v 1 0.1 -0.2
v 1.4 0.5 -0.2
v 1.8 0.5 -0.2
v 1.8 0.6 -0.2
v 1.9 0 -0.2
v 1.9 0.1 -0.2
v 1.9 0.5 -0.2
v 2 0 -0.2
v 2 0.1 -0.2
v 2 0.5 -0.2
v 2 0.6 -0.2
v -2 0.1 -0.3
v -2 0.2 -0.3
v -2 0.3 -0.3
v -2 0.5 -0.3
v -1.9 0.2 -0.3
v -1.9 0.3 -0.3
v -0.8 0.2 -0.3
v -0.8 0.3 -0.3
v -0.7 0.2 -0.3
v -0.7 0.3 -0.3
v -0.4 0.2 -0.3
v -0.4 0.3 -0.3
v 0.1 0.2 -0.3
v 0.1 0.3 -0.3
v 0.6 0.2 -0.3
v 0.6 0.3 -0.3
v 0.7 0.4 -0.3
v 0.7 0.5 -0.3
v 0.9 0.2 -0.3
v 0.9 0.3 -0.3
v 1.4 0.4 -0.3
v 1.4 0.5 -0.3
v 1.8 0.2 -0.3
v 1.8 0.3 -0.3
v 1.9 0.1 -0.3
v 1.9 0.2 -0.3
v 1.9 0.4 -0.3
v 1.9 0.5 -0.3
v 2 0.1 -0.3
v 2 0.2 -0.3
v 2 0.4 -0.3
v 2 0.5 -0.3
v -2 0 0.2
v -1.6 0 0.2
v -1.3 0 0.2
v -1 0 0.2
v -0.6 0 0.2
v 0.4 0 0.2
v 0.6 0 0.2
v 2 0 0.2
v -2 0 0.1
v -1.6 0 0.1
v -1.3 0 0.1
v -1 0 0.1
v -0.6 0 0.1
v -0.0999999 0 0.1
v 0.4 0 0.1
v 0.6 0 0.1
v 1.2 0 0.1
v 1.3 0 0.1
v 1.4 0 0.1
v 1.6 0 0.1
v -2 0 0
v -1.6 0 0
v -1.2 0 0
v -0.9 0 0
v -0.6 0 0
v -0.3 0 0
v -0.0999999 0 0
v 2.38419e-07 0 0
v 1.4 0 0
v 1.6 0 0
v 1.9 0 0
v -2 0 -0.1
v -1.9 0 -0.1
v -1.2 0 -0.1
v -0.9 0 -0.1
v -0.3 0 -0.1
v 2.38419e-07 0 -0.1
v 0.4 0 -0.1
v 1 0 -0.1
v 1.2 0 -0.1
v 1.3 0 -0.1
v 1.6 0 -0.1
v 1.9 0 -0.1
v 2 0 -0.1
v -2 0 -0.2
v -1.9 0 -0.2
v 0.4 0 -0.2
v 1 0 -0.2
v 1.9 0 -0.2
v 2 0 -0.2
v -2 0.1 0.3
v -1.9 0.1 0.3
v -1.5 0.1 0.3
v -1.4 0.1 0.3
v -0.9 0.1 0.3
v -0.0999999 0.1 0.3
v 1.6 0.1 0.3
v 1.9 0.1 0.3
v 2 0.1 0.3
v -2 0.1 0.2
v -1.9 0.1 0.2
v -1.6 0.1 0.2
v -1.5 0.1 0.2
v -1.4 0.1 0.2
v -1.3 0.1 0.2
v -1 0.1 0.2
v -0.9 0.1 0.2
v -0.6 0.1 0.2
v -0.0999999 0.1 0.2
v 0.4 0.1 0.2
v 0.6 0.1 0.2
v 1.6 0.1 0.2
v 1.9 0.1 0.2
v 2 0.1 0.2
v -2 0.1 -0.2
v -1.9 0.1 -0.2
v 0.4 0.1 -0.2
v 1 0.1 -0.2
v 1.9 0.1 -0.2
v 2 0.1 -0.2
v -2 0.1 -0.3
v 1.9 0.1 -0.3
v 2 0.1 -0.3
v -2 0.5 0.3
v -1.1 0.5 0.3
v -0.9 0.5 0.3
v -0.7 0.5 0.3
v 0.8 0.5 0.3
v 1.5 0.5 0.3
v 1.6 0.5 0.3
v 1.9 0.5 0.3
v 2 0.5 0.3
v -2 0.5 0.2
v -1.3 0.5 0.2
v -1.1 0.5 0.2
v -0.9 0.5 0.2
v -0.7 0.5 0.2
v -0.4 0.5 0.2
v -0.3 0.5 0.2
v 0.5 0.5 0.2
v 0.7 0.5 0.2
v 0.8 0.5 0.2
v 1.5 0.5 0.2
v 1.6 0.5 0.2
v 1.9 0.5 0.2
v 2 0.5 0.2
v -2 0.5 -0.2
v -1.9 0.5 -0.2
v 0.7 0.5 -0.2
v 1.4 0.5 -0.2
v 1.8 0.5 -0.2
v 1.9 0.5 -0.2
v 2 0.5 -0.2
v -2 0.5 -0.3
v 0.7 0.5 -0.3
v 1.4 0.5 -0.3
v 1.9 0.5 -0.3
v 2 0.5 -0.3
v -2 0.6 0.2
v -1.3 0.6 0.2
v -0.4 0.6 0.2
v -0.3 0.6 0.2
v 0.5 0.6 0.2
v 0.7 0.6 0.2
v 2 0.6 0.2
v -2 0.6 0.1
v -1.5 0.6 0.1
v -1.3 0.6 0.1
v -0.6 0.6 0.1
v -0.4 0.6 0.1
v -0.3 0.6 0.1
v 0.5 0.6 0.1
v 0.7 0.6 0.1
v 1.2 0.6 0.1
v 2 0.6 0.1
v -1.5 0.6 0
v -1.3 0.6 0
v -0.6 0.6 0
v -0.4 0.6 0
v -0.2 0.6 0
v 0.1 0.6 0
v 0.3 0.6 0
v 1.2 0.6 0
v 2 0.6 0
v -2 0.6 -0.1
v -1.9 0.6 -0.1
v -0.2 0.6 -0.1
v 0.1 0.6 -0.1
v 0.3 0.6 -0.1
v 1.2 0.6 -0.1
v 1.8 0.6 -0.1
v 2 0.6 -0.1
v -2 0.6 -0.2
v -1.9 0.6 -0.2
v 1.8 0.6 -0.2
v 2 0.6 -0.2

# faces
f 7/1/1 2/1/1 1/1/1
f 8/3/1 3/3/1 2/3/1
f 8/1/1 2/1/1 7/1/1
f 9/1/1 4/1/1 3/1/1
f 9/3/1 3/3/1 8/3/1
f 10/2/1 5/2/1 4/2/1
f 10/1/1 4/1/1 9/1/1
f 11/2/1 5/2/1 10/2/1
f 13/2/1 7/2/1 6/2/1
f 14/1/1 8/1/1 7/1/1
f 14/2/1 7/2/1 13/2/1
f 15/2/1 9/2/1 8/2/1
f 15/1/1 8/1/1 14/1/1
f 16/3/1 10/3/1 9/3/1
f 16/2/1 9/2/1 15/2/1
f 16/3/1 11/3/1 10/3/1
f 17/1/1 12/1/1 11/1/1
f 17/3/1 11/3/1 16/3/1
f 18/1/1 12/1/1 17/1/1
f 19/1/1 14/1/1 13/1/1
f 20/2/1 15/2/1 14/2/1
f 20/1/1 14/1/1 19/1/1
f 21/3/1 16/3/1 15/3/1
f 21/2/1 15/2/1 20/2/1
f 22/1/1 17/1/1 16/1/1
f 22/3/1 16/3/1 21/3/1
f 23/1/1 17/1/1 22/1/1
f 24/2/1 18/2/1 17/2/1
f 24/1/1 17/1/1 23/1/1
f 25/2/1 18/2/1 24/2/1
f 26/3/1 20/3/1 19/3/1
f 27/1/1 21/1/1 20/1/1
f 27/3/1 20/3/1 26/3/1
f 28/2/1 23/2/1 22/2/1
f 28/1/1 21/1/1 27/1/1
f 28/2/1 22/2/1 21/2/1
f 29/3/1 24/3/1 23/3/1
f 29/2/1 23/2/1 28/2/1
f 30/1/1 27/1/1 26/1/1
f 30/1/1 28/1/1 27/1/1
f 31/1/1 28/1/1 30/1/1
f 32/3/1 29/3/1 28/3/1
f 32/1/1 28/1/1 31/1/1
f 33/3/1 24/3/1 29/3/1
f 33/3/1 29/3/1 32/3/1
f 34/1/1 25/1/1 24/1/1
f 34/3/1 24/3/1 33/3/1
f 35/1/1 25/1/1 34/1/1
f 36/3/1 32/3/1 31/3/1
f 37/1/1 33/1/1 32/1/1
f 37/3/1 32/3/1 36/3/1
f 38/2/1 34/2/1 33/2/1
f 38/1/1 33/1/1 37/1/1
f 39/2/1 34/2/1 38/2/1
f 40/1/2 41/1/2 44/1/2
f 44/1/2 41/1/2 45/1/2
f 41/3/2 42/3/2 46/3/2
f 45/1/2 41/1/2 46/1/2
f 46/3/2 42/3/2 47/3/2
f 43/1/2 44/1/2 49/1/2
f 44/3/2 45/3/2 50/3/2
f 49/1/2 44/1/2 50/1/2
f 50/3/2 45/3/2 51/3/2
f 45/2/2 46/2/2 52/2/2
f 51/3/2 45/3/2 52/3/2
f 46/1/2 47/1/2 53/1/2
f 52/2/2 46/2/2 53/2/2
f 47/3/2 48/3/2 54/3/2
f 53/1/2 47/1/2 54/1/2
f 54/3/2 48/3/2 55/3/2
f 49/3/2 50/3/2 56/3/2
f 50/2/2 51/2/2 57/2/2
f 56/3/2 50/3/2 57/3/2
f 52/1/2 53/1/2 58/1/2
f 57/2/2 51/2/2 58/2/2
f 51/1/2 52/1/2 58/1/2
f 58/1/2 53/1/2 59/1/2
f 53/2/2 54/2/2 60/2/2
f 59/1/2 53/1/2 60/1/2
f 54/1/2 55/1/2 61/1/2
f 60/2/2 54/2/2 61/2/2
f 56/2/2 57/2/2 62/2/2
f 57/1/2 58/1/2 63/1/2
f 62/2/2 57/2/2 63/2/2
f 58/3/2 59/3/2 64/3/2
f 63/1/2 58/1/2 64/1/2
f 59/1/2 60/1/2 65/1/2
f 64/3/2 59/3/2 65/3/2
f 60/3/2 61/3/2 66/3/2
f 65/1/2 60/1/2 66/1/2
f 61/1/2 55/1/2 67/1/2
f 66/3/2 61/3/2 67/3/2
f 67/1/2 55/1/2 68/1/2
f 63/3/2 64/3/2 69/3/2
f 62/3/2 63/3/2 69/3/2
f 69/3/2 64/3/2 70/3/2
f 65/2/2 66/2/2 71/2/2
f 70/3/2 64/3/2 71/3/2
f 64/2/2 65/2/2 71/2/2
f 71/2/2 66/2/2 72/2/2
f 66/1/2 67/1/2 73/1/2
f 72/2/2 66/2/2 73/2/2
f 67/3/2 68/3/2 74/3/2
f 73/1/2 67/1/2 74/1/2
f 74/3/2 68/3/2 75/3/2
f 70/1/2 71/1/2 76/1/2
f 71/3/2 72/3/2 77/3/2
f 76/1/2 71/1/2 77/1/2
f 72/1/2 73/1/2 78/1/2
f 77/3/2 72/3/2 78/3/2
f 73/2/2 74/2/2 79/2/2
f 78/1/2 73/1/2 79/1/2
f 79/2/2 74/2/2 80/2/2
f 86/2/3 82/2/3 81/2/3
f 87/1/3 83/1/3 82/1/3
f 87/2/3 82/2/3 86/2/3
f 88/3/3 84/3/3 83/3/3
f 88/1/3 83/1/3 87/1/3
f 89/1/3 85/1/3 84/1/3
f 89/3/3 84/3/3 88/3/3
f 90/1/3 88/1/3 87/1/3
f 90/1/3 87/1/3 86/1/3
f 90/1/3 89/1/3 88/1/3
f 91/1/3 85/1/3 89/1/3
f 91/1/3 89/1/3 90/1/3
f 92/1/3 90/1/3 86/1/3
f 93/2/3 91/2/3 90/2/3
f 93/1/3 90/1/3 92/1/3
f 94/1/3 92/1/3 86/1/3
f 95/2/3 93/2/3 92/2/3
f 95/1/3 92/1/3 94/1/3
f 96/1/3 85/1/3 91/1/3
f 96/2/3 93/2/3 95/2/3
f 96/2/3 91/2/3 93/2/3
f 97/2/3 95/2/3 94/2/3
f 98/1/3 96/1/3 95/1/3
f 98/2/3 95/2/3 97/2/3
f 99/1/3 85/1/3 96/1/3
f 99/1/3 96/1/3 98/1/3
f 99/1/3 98/1/3 97/1/3
f 100/1/3 85/1/3 99/1/3
f 101/1/3 99/1/3 97/1/3
f 102/1/3 99/1/3 101/1/3
f 103/2/3 100/2/3 99/2/3
f 103/1/3 99/1/3 102/1/3
f 104/2/3 100/2/3 103/2/3
f 105/1/3 103/1/3 102/1/3
f 105/1/3 104/1/3 103/1/3
f 106/1/3 104/1/3 105/1/3
f 107/1/3 105/1/3 102/1/3
f 108/3/3 106/3/3 105/3/3
f 108/1/3 105/1/3 107/1/3
f 109/3/3 102/3/3 101/3/3
f 110/1/3 107/1/3 102/1/3
f 110/3/3 102/3/3 109/3/3
f 111/2/3 108/2/3 107/2/3
f 111/1/3 107/1/3 110/1/3
f 112/3/3 111/3/3 110/3/3
f 112/2/3 108/2/3 111/2/3
f 113/3/3 106/3/3 108/3/3
f 113/2/3 108/2/3 112/2/3
f 114/3/3 112/3/3 110/3/3
f 114/1/3 110/1/3 109/1/3
f 115/1/3 113/1/3 112/1/3
f 115/3/3 112/3/3 114/3/3
f 116/3/3 106/3/3 113/3/3
f 116/1/3 113/1/3 115/1/3
f 116/1/3 115/1/3 114/1/3
f 117/3/3 106/3/3 116/3/3
f 118/1/3 114/1/3 109/1/3
f 118/1/3 116/1/3 114/1/3
f 118/1/3 117/1/3 116/1/3
f 119/1/3 117/1/3 118/1/3
f 120/1/3 118/1/3 109/1/3
f 120/2/3 119/2/3 118/2/3
f 121/1/3 117/1/3 119/1/3
f 121/2/3 119/2/3 120/2/3
f 122/1/3 121/1/3 120/1/3
f 122/1/3 117/1/3 121/1/3
f 123/1/3 117/1/3 122/1/3
f 124/1/3 122/1/3 120/1/3
f 124/2/3 123/2/3 122/2/3
f 125/1/3 117/1/3 123/1/3
f 125/2/3 123/2/3 124/2/3
f 126/1/3 117/1/3 125/1/3
f 127/1/3 120/1/3 109/1/3
f 127/1/3 124/1/3 120/1/3
f 127/1/3 125/1/3 124/1/3
f 128/1/3 125/1/3 127/1/3
f 129/2/3 126/2/3 125/2/3
f 129/1/3 125/1/3 128/1/3
f 130/2/3 126/2/3 129/2/3
f 131/2/3 128/2/3 127/2/3
f 132/1/3 129/1/3 128/1/3
f 132/2/3 128/2/3 131/2/3
f 132/1/3 130/1/3 129/1/3
f 133/1/3 130/1/3 132/1/3
f 134/1/3 130/1/3 133/1/3
f 135/1/3 130/1/3 134/1/3
f 136/1/3 132/1/3 131/1/3
f 137/3/3 133/3/3 132/3/3
f 137/1/3 132/1/3 136/1/3
f 138/2/3 134/2/3 133/2/3
f 138/3/3 133/3/3 137/3/3
f 139/3/3 135/3/3 134/3/3
f 139/2/3 134/2/3 138/2/3
f 140/3/3 135/3/3 139/3/3
f 145/1/3 142/1/3 141/1/3
f 146/1/3 145/1/3 141/1/3
f 147/1/3 145/1/3 146/1/3
f 148/3/3 147/3/3 146/3/3
f 149/3/3 148/3/3 146/3/3
f 150/3/3 149/3/3 146/3/3
f 151/3/3 149/3/3 150/3/3
f 152/3/3 144/3/3 143/3/3
f 153/3/3 144/3/3 152/3/3
f 154/1/3 153/1/3 152/1/3
f 155/1/3 151/1/3 150/1/3
f 156/1/3 151/1/3 155/1/3
f 157/3/3 156/3/3 155/3/3
f 158/1/3 153/1/3 154/1/3
f 159/1/3 153/1/3 158/1/3
f 160/3/3 157/3/3 155/3/3
f 161/3/3 157/3/3 160/3/3
f 162/1/3 153/1/3 159/1/3
f 163/1/3 153/1/3 162/1/3
f 164/2/3 163/2/3 162/2/3
f 165/2/3 163/2/3 164/2/3
f 166/1/3 161/1/3 160/1/3
f 167/1/3 166/1/3 160/1/3
f 168/1/3 166/1/3 167/1/3
f 169/1/3 165/1/3 164/1/3
f 170/1/3 165/1/3 169/1/3
f 171/2/3 168/2/3 167/2/3
f 172/2/3 168/2/3 171/2/3
f 173/2/3 170/2/3 169/2/3
f 174/2/3 170/2/3 173/2/3
f 175/1/3 174/1/3 173/1/3
f 176/1/3 174/1/3 175/1/3
f 177/1/3 172/1/3 171/1/3
f 178/1/3 174/1/3 176/1/3
f 179/1/3 177/1/3 171/1/3
f 180/1/3 174/1/3 178/1/3
f 181/1/3 179/1/3 171/1/3
f 182/1/3 179/1/3 181/1/3
f 183/1/3 174/1/3 180/1/3
f 184/1/3 174/1/3 183/1/3
f 185/2/4 186/2/4 189/2/4
f 189/2/4 186/2/4 190/2/4
f 187/2/4 188/2/4 191/2/4
f 191/2/4 188/2/4 192/2/4
f 189/1/4 190/1/4 193/1/4
f 193/1/4 190/1/4 194/1/4
f 191/1/4 192/1/4 195/1/4
f 193/3/4 194/3/4 196/3/4
f 196/3/4 194/3/4 197/3/4
f 195/1/4 192/1/4 198/1/4
f 198/1/4 192/1/4 199/1/4
f 199/1/4 192/1/4 200/1/4
f 196/1/4 197/1/4 201/1/4
f 201/1/4 197/1/4 202/1/4
f 199/2/4 200/2/4 203/2/4
f 201/3/4 202/3/4 204/3/4
f 204/3/4 202/3/4 205/3/4
f 203/2/4 200/2/4 206/2/4
f 206/2/4 200/2/4 207/2/4
f 208/1/4 209/1/4 212/1/4
f 209/2/4 210/2/4 212/2/4
f 210/1/4 211/1/4 213/1/4
f 212/2/4 210/2/4 213/2/4
f 208/1/4 212/1/4 214/1/4
f 212/3/4 213/3/4 214/3/4
f 213/1/4 211/1/4 215/1/4
f 214/3/4 213/3/4 215/3/4
f 208/1/4 214/1/4 216/1/4
f 214/1/4 215/1/4 216/1/4
f 215/1/4 211/1/4 217/1/4
f 216/1/4 215/1/4 217/1/4
f 208/1/4 216/1/4 218/1/4
f 216/2/4 217/2/4 218/2/4
f 217/1/4 211/1/4 219/1/4
f 218/2/4 217/2/4 219/2/4
f 208/1/4 218/1/4 220/1/4
f 218/1/4 219/1/4 220/1/4
f 219/1/4 211/1/4 221/1/4
f 220/1/4 219/1/4 221/1/4
f 208/1/4 220/1/4 222/1/4
f 220/2/4 221/2/4 222/2/4
f 221/1/4 211/1/4 223/1/4
f 222/2/4 221/2/4 223/2/4
f 222/1/4 223/1/4 224/1/4
f 223/1/4 211/1/4 224/1/4
f 224/1/4 211/1/4 225/1/4
f 208/1/4 222/1/4 226/1/4
f 222/1/4 224/1/4 226/1/4
f 226/1/4 224/1/4 227/1/4
f 224/2/4 225/2/4 228/2/4
f 227/1/4 224/1/4 228/1/4
f 228/2/4 225/2/4 229/2/4
f 226/3/4 227/3/4 230/3/4
f 208/1/4 226/1/4 230/1/4
f 228/1/4 229/1/4 231/1/4
f 230/3/4 227/3/4 231/3/4
f 227/1/4 228/1/4 231/1/4
f 208/1/4 230/1/4 232/1/4
f 230/1/4 231/1/4 232/1/4
f 232/1/4 231/1/4 233/1/4
f 231/1/4 229/1/4 234/1/4
f 233/1/4 231/1/4 234/1/4
f 234/1/4 229/1/4 235/1/4
f 232/3/4 233/3/4 236/3/4
f 233/1/4 234/1/4 237/1/4
f 236/3/4 233/3/4 237/3/4
f 234/3/4 235/3/4 238/3/4
f 237/1/4 234/1/4 238/1/4
f 238/3/4 235/3/4 239/3/4
f 248/1/5 241/1/5 240/1/5
f 249/3/5 242/3/5 241/3/5
f 249/1/5 241/1/5 248/1/5
f 250/1/5 243/1/5 242/1/5
f 250/3/5 242/3/5 249/3/5
f 251/3/5 244/3/5 243/3/5
f 251/1/5 243/1/5 250/1/5
f 252/1/5 245/1/5 244/1/5
f 252/3/5 244/3/5 251/3/5
f 253/1/5 245/1/5 252/1/5
f 254/2/5 246/2/5 245/2/5
f 254/1/5 245/1/5 253/1/5
f 255/1/5 247/1/5 246/1/5
f 255/2/5 246/2/5 254/2/5
f 256/1/5 247/1/5 255/1/5
f 257/1/5 247/1/5 256/1/5
f 258/1/5 247/1/5 257/1/5
f 259/1/5 247/1/5 258/1/5
f 260/3/5 249/3/5 248/3/5
f 261/1/5 250/1/5 249/1/5
f 261/3/5 249/3/5 260/3/5
f 261/1/5 251/1/5 250/1/5
f 261/1/5 252/1/5 251/1/5
f 262/1/5 252/1/5 261/1/5
f 263/1/5 252/1/5 262/1/5
f 264/3/5 253/3/5 252/3/5
f 264/1/5 252/1/5 263/1/5
f 265/3/5 253/3/5 264/3/5
f 266/1/5 254/1/5 253/1/5
f 266/3/5 253/3/5 265/3/5
f 266/1/5 255/1/5 254/1/5
f 266/1/5 256/1/5 255/1/5
f 267/1/5 256/1/5 266/1/5
f 268/3/5 259/3/5 258/3/5
f 268/1/5 258/1/5 257/1/5
f 269/1/5 247/1/5 259/1/5
f 269/3/5 259/3/5 268/3/5
f 270/1/5 247/1/5 269/1/5
f 271/1/5 262/1/5 261/1/5
f 271/1/5 261/1/5 260/1/5
f 272/1/5 262/1/5 271/1/5
f 273/2/5 263/2/5 262/2/5
f 273/1/5 262/1/5 272/1/5
f 274/1/5 265/1/5 264/1/5
f 274/2/5 263/2/5 273/2/5
f 274/1/5 264/1/5 263/1/5
f 275/2/5 267/2/5 266/2/5
f 275/1/5 265/1/5 274/1/5
f 275/2/5 266/2/5 265/2/5
f 276/1/5 256/1/5 267/1/5
f 276/2/5 267/2/5 275/2/5
f 277/1/5 256/1/5 276/1/5
f 278/1/5 256/1/5 277/1/5
f 279/2/5 257/2/5 256/2/5
f 279/1/5 256/1/5 278/1/5
f 280/1/5 268/1/5 257/1/5
f 280/2/5 257/2/5 279/2/5
f 280/1/5 269/1/5 268/1/5
f 281/3/5 270/3/5 269/3/5
f 281/1/5 269/1/5 280/1/5
f 282/1/5 247/1/5 270/1/5
f 282/3/5 270/3/5 281/3/5
f 283/1/5 247/1/5 282/1/5
f 284/2/5 272/2/5 271/2/5
f 285/1/5 273/1/5 272/1/5
f 285/2/5 272/2/5 284/2/5
f 285/1/5 275/1/5 274/1/5
f 285/1/5 274/1/5 273/1/5
f 285/1/5 277/1/5 276/1/5
f 285/1/5 276/1/5 275/1/5
f 286/3/5 278/3/5 277/3/5
f 286/1/5 277/1/5 285/1/5
f 287/1/5 279/1/5 278/1/5
f 287/3/5 278/3/5 286/3/5
f 287/1/5 282/1/5 281/1/5
f 287/1/5 280/1/5 279/1/5
f 287/1/5 281/1/5 280/1/5
f 288/3/5 283/3/5 282/3/5
f 288/1/5 282/1/5 287/1/5
f 289/3/5 283/3/5 288/3/5
f 299/2/5 291/2/5 290/2/5
f 300/1/5 292/1/5 291/1/5
f 300/2/5 291/2/5 299/2/5
f 301/1/5 292/1/5 300/1/5
f 302/2/5 293/2/5 292/2/5
f 302/1/5 292/1/5 301/1/5
f 303/1/5 294/1/5 293/1/5
f 303/2/5 293/2/5 302/2/5
f 304/1/5 294/1/5 303/1/5
f 305/1/5 294/1/5 304/1/5
f 306/3/5 295/3/5 294/3/5
f 306/1/5 294/1/5 305/1/5
f 307/3/5 295/3/5 306/3/5
f 308/1/5 296/1/5 295/1/5
f 308/3/5 295/3/5 307/3/5
f 309/1/5 296/1/5 308/1/5
f 310/1/5 296/1/5 309/1/5
f 311/2/5 297/2/5 296/2/5
f 311/1/5 296/1/5 310/1/5
f 312/1/5 298/1/5 297/1/5
f 312/2/5 297/2/5 311/2/5
f 313/1/5 298/1/5 312/1/5
f 320/1/5 315/1/5 314/1/5
f 320/1/5 316/1/5 315/1/5
f 320/1/5 318/1/5 317/1/5
f 320/1/5 317/1/5 316/1/5
f 321/3/5 319/3/5 318/3/5
f 321/1/5 318/1/5 320/1/5
f 322/3/5 319/3/5 321/3/5
f 323/1/6 324/1/6 332/1/6
f 332/1/6 324/1/6 333/1/6
f 324/2/6 325/2/6 334/2/6
f 333/1/6 324/1/6 334/1/6
f 325/1/6 326/1/6 335/1/6
f 334/2/6 325/2/6 335/2/6
f 326/3/6 327/3/6 336/3/6
f 335/1/6 326/1/6 336/1/6
f 336/3/6 327/3/6 337/3/6
f 337/3/6 327/3/6 338/3/6
f 338/3/6 327/3/6 339/3/6
f 339/3/6 327/3/6 340/3/6
f 327/1/6 328/1/6 341/1/6
f 340/3/6 327/3/6 341/3/6
f 328/2/6 329/2/6 342/2/6
f 341/1/6 328/1/6 342/1/6
f 329/1/6 330/1/6 343/1/6
f 342/2/6 329/2/6 343/2/6
f 330/3/6 331/3/6 344/3/6
f 343/1/6 330/1/6 344/1/6
f 344/3/6 331/3/6 345/3/6
f 346/1/6 347/1/6 353/1/6
f 347/1/6 348/1/6 353/1/6
f 348/2/6 349/2/6 354/2/6
f 353/1/6 348/1/6 354/1/6
f 350/1/6 351/1/6 355/1/6
f 354/2/6 349/2/6 355/2/6
f 349/1/6 350/1/6 355/1/6
f 351/3/6 352/3/6 356/3/6
f 355/1/6 351/1/6 356/1/6
f 356/3/6 352/3/6 357/3/6
f 358/3/6 359/3/6 365/3/6
f 365/3/6 359/3/6 366/3/6
f 359/1/6 360/1/6 367/1/6
f 366/3/6 359/3/6 367/3/6
f 367/1/6 360/1/6 368/1/6
f 360/2/6 361/2/6 369/2/6
f 368/1/6 360/1/6 369/1/6
f 361/1/6 362/1/6 370/1/6
f 369/2/6 361/2/6 370/2/6
f 362/2/6 363/2/6 371/2/6
f 370/1/6 362/1/6 371/1/6
f 363/1/6 364/1/6 372/1/6
f 371/2/6 363/2/6 372/2/6
f 372/1/6 364/1/6 373/1/6
f 373/1/6 364/1/6 374/1/6
f 365/1/6 366/1/6 375/1/6
f 366/2/6 367/2/6 375/2/6
f 367/1/6 368/1/6 376/1/6
f 375/2/6 367/2/6 376/2/6
f 368/2/6 369/2/6 377/2/6
f 376/1/6 368/1/6 377/1/6
f 370/1/6 371/1/6 378/1/6
f 377/2/6 369/2/6 378/2/6
f 369/1/6 370/1/6 378/1/6
f 372/1/6 373/1/6 378/1/6
f 371/1/6 372/1/6 378/1/6
f 378/1/6 373/1/6 379/1/6
f 379/1/6 373/1/6 380/1/6
f 380/1/6 373/1/6 381/1/6
f 373/3/6 374/3/6 382/3/6
f 381/1/6 373/1/6 382/1/6
f 382/3/6 374/3/6 383/3/6
f 376/1/6 377/1/6 384/1/6
f 365/1/6 375/1/6 384/1/6
f 375/1/6 376/1/6 384/1/6
f 377/1/6 378/1/6 384/1/6
f 378/1/6 379/1/6 384/1/6
f 384/1/6 379/1/6 385/1/6
f 379/2/6 380/2/6 386/2/6
f 385/1/6 379/1/6 386/1/6
f 380/1/6 381/1/6 387/1/6
f 386/2/6 380/2/6 387/2/6
f 381/3/6 382/3/6 388/3/6
f 387/1/6 381/1/6 388/1/6
f 382/1/6 383/1/6 389/1/6
f 388/3/6 382/3/6 389/3/6
f 389/1/6 383/1/6 390/1/6
f 390/1/6 383/1/6 391/1/6
f 384/2/6 385/2/6 392/2/6
f 387/1/6 388/1/6 393/1/6
f 392/2/6 385/2/6 393/2/6
f 386/1/6 387/1/6 393/1/6
f 385/1/6 386/1/6 393/1/6
f 389/1/6 390/1/6 393/1/6
f 388/1/6 389/1/6 393/1/6
f 390/2/6 391/2/6 394/2/6
f 393/1/6 390/1/6 394/1/6
f 394/2/6 391/2/6 395/2/6
